<svg version="1.0" xmlns="http://www.w3.org/2000/svg"
 width="256.000000pt" height="256.000000pt" viewBox="0 0 256.000000 256.000000"
 preserveAspectRatio="xMidYMid meet">

<g transform="translate(0.000000,256.000000) scale(0.100000,-0.100000)"
fill="#e7e3da" stroke="none">
<path d="M985 2387 c-40 -19 -82 -69 -95 -115 -6 -20 -37 -136 -68 -257 l-57
-220 -185 -5 c-182 -5 -185 -5 -188 -27 -9 -59 106 -196 206 -247 50 -25 52
-28 52 -67 0 -43 11 -72 42 -105 17 -19 18 -27 9 -60 -6 -22 -11 -54 -11 -72
0 -18 -12 -56 -26 -84 -33 -66 -41 -139 -20 -198 20 -58 20 -69 -5 -151 -12
-39 -19 -84 -16 -102 3 -21 -2 -41 -14 -58 -28 -40 -125 -418 -112 -438 13
-21 47 -26 60 -9 5 7 32 96 58 198 26 102 52 193 57 202 11 23 28 31 156 77
l109 39 22 -101 c25 -119 48 -149 85 -111 12 11 14 26 9 56 -5 37 -4 41 12 34
10 -3 46 -12 81 -18 l64 -13 0 -42 c0 -36 4 -45 25 -55 35 -16 55 4 55 56 l0
42 63 11 c34 7 72 15 84 18 19 6 21 4 16 -17 -16 -71 -58 -200 -89 -269 -28
-64 -33 -83 -24 -100 43 -80 129 89 198 388 l27 121 120 -43 c66 -24 127 -52
136 -63 8 -11 37 -102 63 -203 27 -101 52 -192 58 -202 5 -11 18 -17 30 -15
45 7 45 27 -10 234 -29 109 -59 208 -68 221 -8 14 -17 52 -18 86 -2 34 -11 79
-20 101 -20 47 -20 69 -1 121 23 63 18 119 -15 195 -16 38 -30 84 -30 103 0
19 -5 48 -11 66 -10 29 -9 35 15 60 30 31 50 92 41 121 -5 15 6 25 54 50 103
55 208 183 199 243 -3 22 -7 22 -189 25 l-186 2 -17 61 c-9 33 -14 64 -12 68
3 4 31 16 63 26 l57 18 158 -37 c165 -39 188 -39 188 3 0 17 -198 330 -234
369 -41 46 -67 52 -303 67 -325 21 -331 21 -339 -11 -4 -15 -2 -30 5 -37 8 -8
107 -18 275 -28 145 -9 272 -21 283 -27 22 -12 188 -262 173 -262 -5 0 -48 9
-95 20 -107 25 -128 25 -200 0 -32 -11 -59 -19 -60 -18 -1 2 -7 22 -13 44 -13
46 -33 59 -64 43 -20 -11 -21 -37 -2 -106 l6 -23 -357 0 c-282 0 -356 3 -352
13 2 6 21 77 41 157 48 186 55 195 168 187 62 -5 80 -3 93 9 19 19 19 38 0 54
-23 19 -174 24 -210 7z m649 -534 c4 -16 9 -36 12 -45 5 -17 -18 -18 -395 -18
-221 0 -401 3 -401 8 0 4 5 24 11 45 l10 37 378 0 379 0 6 -27z m366 -152 c0
-17 -101 -102 -147 -123 -42 -19 -70 -23 -213 -26 -97 -2 -170 -8 -178 -15 -7
-5 -12 -22 -10 -36 3 -25 5 -26 91 -29 l87 -3 0 -37 c0 -111 -59 -243 -149
-333 -122 -121 -224 -150 -336 -93 -152 76 -250 222 -270 401 l-7 63 244 2
243 3 3 26 c2 14 -3 31 -10 37 -9 7 -118 12 -333 14 l-320 3 -52 27 c-57 31
-118 80 -134 109 -9 18 12 19 741 19 414 0 750 -4 750 -9z m-1210 -245 c0 -7
3 -28 6 -45 5 -23 3 -31 -8 -31 -22 0 -71 57 -65 74 8 20 67 22 67 2z m987 -3
c4 -11 -6 -27 -31 -50 -21 -19 -39 -33 -41 -31 -2 1 -1 24 2 51 5 44 7 47 35
47 17 0 31 -6 35 -17z m-971 -171 c5 -4 26 -41 46 -83 36 -78 133 -193 189
-226 26 -16 29 -23 29 -69 0 -34 -6 -59 -17 -73 -17 -21 -341 -147 -351 -137
-2 3 6 38 18 79 23 77 23 104 -1 203 -11 47 -10 54 15 109 14 32 29 76 32 99
14 112 16 115 40 98z m918 -19 c2 -16 8 -50 11 -76 4 -26 17 -71 31 -100 28
-60 30 -103 9 -154 -20 -48 -19 -75 6 -161 12 -40 20 -74 18 -77 -3 -2 -78 23
-169 55 -186 67 -199 77 -200 155 0 45 3 52 29 68 75 44 167 159 205 257 26
65 51 79 60 33z m-474 -367 c14 0 41 3 61 7 l36 7 5 -45 c7 -56 48 -112 99
-134 31 -13 37 -20 32 -36 -8 -27 -16 -32 -96 -56 -55 -17 -86 -20 -160 -17
-116 6 -207 38 -207 72 0 16 10 27 34 39 48 23 87 78 94 132 l5 45 36 -7 c20
-4 47 -7 61 -7z"/>
<path d="M1036 374 c-19 -19 -17 -30 30 -132 34 -74 54 -93 83 -75 27 17 22
44 -22 133 -43 88 -62 103 -91 74z"/>
</g>
</svg>